#Comment line ignore any data following # character 
#Hierarchical Translation and Rotation (.htr) file 
[Header]	
#Header keywords are followed by a single value 
FileType HTR		#Single word string
DataType HTRS		#Translation followed by rotation and scale data
FileVersion 1		#integer
NumSegments 84		#integer
NumFrames 2		#integer
DataFrameRate 30		#integer, data frame rate in this file
EulerRotationOrder ZYX
CalibrationUnits mm
RotationUnits Degrees
GlobalAxisofGravity Y
BoneLengthAxis Y
ScaleFactor 1.00
[SegmentNames&Hierarchy]
#CHILD	PARENT
MASTER GLOBAL
root MASTER
chest root
L_mid_tent01 root
R_mid_tent01 root
spine01 root
Bip01_Neck chest
L_humerus chest
R_humerus chest
weapon_bone chest
Bip01_Head Bip01_Neck
eye_left_bone Bip01_Head
eye_right_bone Bip01_Head
L_forearm L_humerus
L_front_hand L_forearm
L_weapon_bone L_forearm
L_front_hand01_01 L_front_hand
L_front_hand02_01 L_front_hand
L_front_hand03_01 L_front_hand
L_front_hand01_02 L_front_hand01_01
L_front_hand02_02 L_front_hand02_01
L_front_hand03_02 L_front_hand03_01
R_forearm R_humerus
R_front_hand R_forearm
R_weapon_bone R_forearm
R_front_hand01_01 R_front_hand
R_front_hand02_01 R_front_hand
R_front_hand03_01 R_front_hand
R_front_hand01_02 R_front_hand01_01
R_front_hand02_02 R_front_hand02_01
R_front_hand03_02 R_front_hand03_01
null_rope01_connect L_mid_tent01
Rope1_Seg01 null_rope01_connect
Rope1_Seg02 Rope1_Seg01
Rope1_Seg03 Rope1_Seg02
Rope1_Seg04 Rope1_Seg03
Rope1_Seg05 Rope1_Seg04
Rope1_Seg06 Rope1_Seg05
Rope1_Seg07 Rope1_Seg06
Rope1_Seg09 Rope1_Seg07
L_mid_hand01 Rope1_Seg09
L_mid_hand02 Rope1_Seg09
L_mid_hand03 Rope1_Seg09
null_rope02_connect R_mid_tent01
Rope2_Seg01 null_rope02_connect
Rope2_Seg02 Rope2_Seg01
Rope2_Seg03 Rope2_Seg02
Rope2_Seg04 Rope2_Seg03
Rope2_Seg05 Rope2_Seg04
Rope2_Seg06 Rope2_Seg05
Rope2_Seg07 Rope2_Seg06
Rope2_Seg09 Rope2_Seg07
R_mid_hand01 Rope2_Seg09
R_mid_hand02 Rope2_Seg09
R_mid_hand03 Rope2_Seg09
spine02 spine01
spine03 spine02
pelvis spine03
null_rope03_connect pelvis
null_rope04_connect pelvis
Rope3_Seg01 null_rope03_connect
Rope3_Seg02 Rope3_Seg01
Rope3_Seg03 Rope3_Seg02
Rope3_Seg04 Rope3_Seg03
Rope3_Seg05 Rope3_Seg04
Rope3_Seg06 Rope3_Seg05
Rope3_Seg07 Rope3_Seg06
Rope3_Seg08 Rope3_Seg07
Rope3_Seg09 Rope3_Seg08
R_rear_hand01 Rope3_Seg09
R_rear_hand02 Rope3_Seg09
R_rear_hand03 Rope3_Seg09
Rope4_Seg01 null_rope04_connect
Rope4_Seg02 Rope4_Seg01
Rope4_Seg03 Rope4_Seg02
Rope4_Seg04 Rope4_Seg03
Rope4_Seg05 Rope4_Seg04
Rope4_Seg06 Rope4_Seg05
Rope4_Seg07 Rope4_Seg06
Rope4_Seg08 Rope4_Seg07
Rope4_Seg09 Rope4_Seg08
L_rear_hand01 Rope4_Seg09
L_rear_hand02 Rope4_Seg09
L_rear_hand03 Rope4_Seg09
[BasePosition]
#SegmentName Tx, Ty, Tz, Rx, Ry, Rz, BoneLength
MASTER 0.000000 0.000000 0.000000 -90.000000 0.000000 0.000000 10.000000 
root 0.000000 0.000000 0.000000 0.000000 0.000000 0.000000 10.000000 
chest 0.000000 0.000000 0.000000 0.000000 0.000000 0.000000 10.000000 
L_mid_tent01 0.000000 0.000000 0.000000 0.000000 0.000000 0.000000 10.000000 
R_mid_tent01 0.000000 0.000000 0.000000 0.000000 0.000000 0.000000 10.000000 
spine01 0.000000 0.000000 0.000000 0.000000 0.000000 0.000000 10.000000 
Bip01_Neck 0.000000 0.000000 0.000000 0.000000 0.000000 0.000000 10.000000 
L_humerus 0.000000 0.000000 0.000000 0.000000 0.000000 0.000000 10.000000 
R_humerus 0.000000 0.000000 0.000000 0.000000 0.000000 0.000000 10.000000 
weapon_bone 0.000000 0.000000 0.000000 0.000000 0.000000 0.000000 10.000000 
Bip01_Head 0.000000 0.000000 0.000000 0.000000 0.000000 0.000000 10.000000 
eye_left_bone 0.000000 0.000000 0.000000 0.000000 0.000000 0.000000 10.000000 
eye_right_bone 0.000000 0.000000 0.000000 0.000000 0.000000 0.000000 10.000000 
L_forearm 0.000000 0.000000 0.000000 0.000000 0.000000 0.000000 10.000000 
L_front_hand 0.000000 0.000000 0.000000 0.000000 0.000000 0.000000 10.000000 
L_weapon_bone 0.000000 0.000000 0.000000 0.000000 0.000000 0.000000 10.000000 
L_front_hand01_01 0.000000 0.000000 0.000000 0.000000 0.000000 0.000000 10.000000 
L_front_hand02_01 0.000000 0.000000 0.000000 0.000000 0.000000 0.000000 10.000000 
L_front_hand03_01 0.000000 0.000000 0.000000 0.000000 0.000000 0.000000 10.000000 
L_front_hand01_02 0.000000 0.000000 0.000000 0.000000 0.000000 0.000000 10.000000 
L_front_hand02_02 0.000000 0.000000 0.000000 0.000000 0.000000 0.000000 10.000000 
L_front_hand03_02 0.000000 0.000000 0.000000 0.000000 0.000000 0.000000 10.000000 
R_forearm 0.000000 0.000000 0.000000 0.000000 0.000000 0.000000 10.000000 
R_front_hand 0.000000 0.000000 0.000000 0.000000 0.000000 0.000000 10.000000 
R_weapon_bone 0.000000 0.000000 0.000000 0.000000 0.000000 0.000000 10.000000 
R_front_hand01_01 0.000000 0.000000 0.000000 0.000000 0.000000 0.000000 10.000000 
R_front_hand02_01 0.000000 0.000000 0.000000 0.000000 0.000000 0.000000 10.000000 
R_front_hand03_01 0.000000 0.000000 0.000000 0.000000 0.000000 0.000000 10.000000 
R_front_hand01_02 0.000000 0.000000 0.000000 0.000000 0.000000 0.000000 10.000000 
R_front_hand02_02 0.000000 0.000000 0.000000 0.000000 0.000000 0.000000 10.000000 
R_front_hand03_02 0.000000 0.000000 0.000000 0.000000 0.000000 0.000000 10.000000 
null_rope01_connect 0.000000 0.000000 0.000000 0.000000 0.000000 0.000000 10.000000 
Rope1_Seg01 0.000000 0.000000 0.000000 0.000000 0.000000 0.000000 10.000000 
Rope1_Seg02 0.000000 0.000000 0.000000 0.000000 0.000000 0.000000 10.000000 
Rope1_Seg03 0.000000 0.000000 0.000000 0.000000 0.000000 0.000000 10.000000 
Rope1_Seg04 0.000000 0.000000 0.000000 0.000000 0.000000 0.000000 10.000000 
Rope1_Seg05 0.000000 0.000000 0.000000 0.000000 0.000000 0.000000 10.000000 
Rope1_Seg06 0.000000 0.000000 0.000000 0.000000 0.000000 0.000000 10.000000 
Rope1_Seg07 0.000000 0.000000 0.000000 0.000000 0.000000 0.000000 10.000000 
Rope1_Seg09 0.000000 0.000000 0.000000 0.000000 0.000000 0.000000 10.000000 
L_mid_hand01 0.000000 0.000000 0.000000 0.000000 0.000000 0.000000 10.000000 
L_mid_hand02 0.000000 0.000000 0.000000 0.000000 0.000000 0.000000 10.000000 
L_mid_hand03 0.000000 0.000000 0.000000 0.000000 0.000000 0.000000 10.000000 
null_rope02_connect 0.000000 0.000000 0.000000 0.000000 0.000000 0.000000 10.000000 
Rope2_Seg01 0.000000 0.000000 0.000000 0.000000 0.000000 0.000000 10.000000 
Rope2_Seg02 0.000000 0.000000 0.000000 0.000000 0.000000 0.000000 10.000000 
Rope2_Seg03 0.000000 0.000000 0.000000 0.000000 0.000000 0.000000 10.000000 
Rope2_Seg04 0.000000 0.000000 0.000000 0.000000 0.000000 0.000000 10.000000 
Rope2_Seg05 0.000000 0.000000 0.000000 0.000000 0.000000 0.000000 10.000000 
Rope2_Seg06 0.000000 0.000000 0.000000 0.000000 0.000000 0.000000 10.000000 
Rope2_Seg07 0.000000 0.000000 0.000000 0.000000 0.000000 0.000000 10.000000 
Rope2_Seg09 0.000000 0.000000 0.000000 0.000000 0.000000 0.000000 10.000000 
R_mid_hand01 0.000000 0.000000 0.000000 0.000000 0.000000 0.000000 10.000000 
R_mid_hand02 0.000000 0.000000 0.000000 0.000000 0.000000 0.000000 10.000000 
R_mid_hand03 0.000000 0.000000 0.000000 0.000000 0.000000 0.000000 10.000000 
spine02 0.000000 0.000000 0.000000 0.000000 0.000000 0.000000 10.000000 
spine03 0.000000 0.000000 0.000000 0.000000 0.000000 0.000000 10.000000 
pelvis 0.000000 0.000000 0.000000 0.000000 0.000000 0.000000 10.000000 
null_rope03_connect 0.000000 0.000000 0.000000 0.000000 0.000000 0.000000 10.000000 
null_rope04_connect 0.000000 0.000000 0.000000 0.000000 0.000000 0.000000 10.000000 
Rope3_Seg01 0.000000 0.000000 0.000000 0.000000 0.000000 0.000000 10.000000 
Rope3_Seg02 0.000000 0.000000 0.000000 0.000000 0.000000 0.000000 10.000000 
Rope3_Seg03 0.000000 0.000000 0.000000 0.000000 0.000000 0.000000 10.000000 
Rope3_Seg04 0.000000 0.000000 0.000000 0.000000 0.000000 0.000000 10.000000 
Rope3_Seg05 0.000000 0.000000 0.000000 0.000000 0.000000 0.000000 10.000000 
Rope3_Seg06 0.000000 0.000000 0.000000 0.000000 0.000000 0.000000 10.000000 
Rope3_Seg07 0.000000 0.000000 0.000000 0.000000 0.000000 0.000000 10.000000 
Rope3_Seg08 0.000000 0.000000 0.000000 0.000000 0.000000 0.000000 10.000000 
Rope3_Seg09 0.000000 0.000000 0.000000 0.000000 0.000000 0.000000 10.000000 
R_rear_hand01 0.000000 0.000000 0.000000 0.000000 0.000000 0.000000 10.000000 
R_rear_hand02 0.000000 0.000000 0.000000 0.000000 0.000000 0.000000 10.000000 
R_rear_hand03 0.000000 0.000000 0.000000 0.000000 0.000000 0.000000 10.000000 
Rope4_Seg01 0.000000 0.000000 0.000000 0.000000 0.000000 0.000000 10.000000 
Rope4_Seg02 0.000000 0.000000 0.000000 0.000000 0.000000 0.000000 10.000000 
Rope4_Seg03 0.000000 0.000000 0.000000 0.000000 0.000000 0.000000 10.000000 
Rope4_Seg04 0.000000 0.000000 0.000000 0.000000 0.000000 0.000000 10.000000 
Rope4_Seg05 0.000000 0.000000 0.000000 0.000000 0.000000 0.000000 10.000000 
Rope4_Seg06 0.000000 0.000000 0.000000 0.000000 0.000000 0.000000 10.000000 
Rope4_Seg07 0.000000 0.000000 0.000000 0.000000 0.000000 0.000000 10.000000 
Rope4_Seg08 0.000000 0.000000 0.000000 0.000000 0.000000 0.000000 10.000000 
Rope4_Seg09 0.000000 0.000000 0.000000 0.000000 0.000000 0.000000 10.000000 
L_rear_hand01 0.000000 0.000000 0.000000 0.000000 0.000000 0.000000 10.000000 
L_rear_hand02 0.000000 0.000000 0.000000 0.000000 0.000000 0.000000 10.000000 
L_rear_hand03 0.000000 0.000000 0.000000 0.000000 0.000000 0.000000 10.000000 
#Beginning of Data. Separated by tabs
#Fr	Tx	Ty	Tz	Rx	Ry	Rz	SF
[MASTER]
67 -0.000543 3625.545898 0.000000 0.001660 0.001660 0.001660 3625.546143
68 -0.000553 3687.656250 0.000000 0.001660 0.001660 0.001660 3687.656250
[root]
67 -804.378662 181.245728 1200.343018 -83.400543 -34.197357 -93.967682 1456.261841
68 -785.923584 181.245728 1164.307983 -84.557480 -34.294609 -94.584137 1416.382324
[chest]
67 -84.512650 -34.090519 0.000000 -5.062937 3.245439 -177.019791 91.129311
68 -84.512650 -34.090519 0.000000 -5.130069 3.164068 -176.671188 91.129311
[L_mid_tent01]
67 27.665337 21.967705 -252.269424 -25.905569 54.658848 37.175892 254.730850
68 27.661650 21.969816 -252.245789 -24.592203 54.986446 38.713982 254.707230
[R_mid_tent01]
67 23.228794 24.509907 226.238495 166.373260 -39.694160 111.473701 228.744751
68 23.228794 24.509907 226.238495 153.352264 -22.069622 127.037720 228.744751
[spine01]
67 -0.361383 -0.195265 0.000000 0.001869 0.001420 15.534141 0.410763
68 -0.361383 -0.195265 0.000000 0.001869 0.001420 15.534141 0.410763
[Bip01_Neck]
67 165.484543 71.581718 0.000119 175.896118 1.177290 24.871183 180.302734
68 165.484543 71.581718 0.000119 175.896118 1.177290 24.871183 180.302734
[L_humerus]
67 -13.983130 -135.272980 -120.471481 179.815033 50.201290 -60.963367 181.680161
68 -13.983130 -135.272980 -120.471481 179.636429 50.548367 -61.155861 181.680161
[R_humerus]
67 -13.983309 -135.273102 125.287651 176.335281 -44.909935 -59.333553 184.909012
68 -13.983309 -135.273102 125.287651 176.601837 -45.033386 -59.511192 184.909012
[weapon_bone]
67 235.964890 -300.705902 0.000000 0.000000 -89.951546 -128.212341 382.234833
68 235.964890 -300.705902 0.000000 0.000000 -89.951546 -128.212341 382.234833
[Bip01_Head]
67 166.391266 121.618568 25.079041 4.071216 -0.610102 -61.485104 207.620056
68 166.876801 123.190102 24.836395 5.653714 -0.607969 -61.487289 208.903122
[eye_left_bone]
67 -24.626970 125.451866 -64.772606 0.000000 -90.000000 -99.840431 143.318359
68 -24.626970 125.451866 -64.772606 0.000000 -90.000000 -99.840431 143.318359
[eye_right_bone]
67 -24.626970 125.451866 64.327362 0.000000 -89.972023 80.159386 143.117676
68 -24.626970 125.451866 64.327362 0.000000 -89.960434 80.159386 143.117676
[L_forearm]
67 322.776093 0.000000 -0.000119 0.000053 0.002347 -87.399483 322.776093
68 322.776093 0.000000 -0.000119 0.000086 0.002346 -85.815979 322.776093
[L_front_hand]
67 241.149185 -0.042021 -3.300071 -178.667953 -1.835447 -27.422350 241.171753
68 241.149185 -0.042021 -3.300071 -178.667953 -1.835447 -27.422350 241.171753
[L_weapon_bone]
67 156.183838 0.000000 0.000000 0.000014 0.000007 0.000001 156.183838
68 156.183838 0.000000 0.000000 0.000014 0.000007 0.000001 156.183838
[L_front_hand01_01]
67 86.095154 20.947098 -0.655860 -0.366594 -0.477154 75.385574 88.609184
68 86.095154 20.947098 -0.655860 -0.366594 -0.477154 75.385574 88.609184
[L_front_hand02_01]
67 86.935165 -11.437475 24.513514 154.403519 -59.888931 -61.371990 91.046425
68 86.935165 -11.437475 24.513514 154.403519 -59.888943 -61.371990 91.046425
[L_front_hand03_01]
67 86.637497 -14.123976 -20.424902 -153.913864 58.118130 -62.702873 90.126129
68 86.637497 -14.123976 -20.424902 -153.913864 58.118130 -62.702873 90.126129
[L_front_hand01_02]
67 71.020905 -0.000179 0.000030 0.000334 -0.002323 -106.379684 71.020905
68 71.020905 -0.000179 0.000030 0.000334 -0.002323 -106.379684 71.020905
[L_front_hand02_02]
67 71.020927 -0.000119 0.000060 0.000334 -0.002323 -106.379684 71.020927
68 71.020927 -0.000119 0.000060 0.000334 -0.002323 -106.379684 71.020927
[L_front_hand03_02]
67 71.020905 -0.000060 0.000060 0.000334 -0.002323 -106.379684 71.020905
68 71.020905 -0.000060 0.000060 0.000334 -0.002323 -106.379684 71.020905
[R_forearm]
67 322.776428 -0.000060 0.000030 0.205753 -0.048469 -77.417953 322.776428
68 322.776428 -0.000060 0.000030 0.208376 -0.054167 -76.407455 322.776428
[R_front_hand]
67 238.847015 -0.006795 2.210259 -1.531694 0.790216 -51.443054 238.857239
68 238.847015 -0.006795 2.210259 -1.531694 0.790216 -51.443054 238.857239
[R_weapon_bone]
67 155.664093 0.002503 -0.000030 0.003487 0.001180 -90.988930 155.664078
68 155.664093 0.002503 -0.000030 0.003487 0.001180 -90.988930 155.664078
[R_front_hand01_01]
67 87.624611 14.231146 22.918642 -154.633499 -59.950626 61.746052 91.683487
68 87.624611 14.231146 22.918642 -154.633484 -59.950607 61.746025 91.683487
[R_front_hand02_01]
67 89.356956 14.367283 -19.491137 154.602676 58.302864 63.744389 92.579636
68 89.356956 14.367283 -19.491137 154.602661 58.302849 63.744381 92.579636
[R_front_hand03_01]
67 87.286232 -22.307278 -0.143439 0.162155 -0.423168 -75.767921 90.091743
68 87.286232 -22.307278 -0.143439 0.162155 -0.423168 -75.767921 90.091743
[R_front_hand01_02]
67 71.020905 0.000060 0.000119 0.002323 -0.000334 106.381714 71.020905
68 71.020905 0.000060 0.000119 0.002323 -0.000334 106.381714 71.020905
[R_front_hand02_02]
67 71.020844 -0.000030 -0.000119 0.002323 -0.000334 106.381714 71.020836
68 71.020844 -0.000030 -0.000119 0.002323 -0.000334 106.381714 71.020836
[R_front_hand03_02]
67 71.020905 0.000000 0.000030 0.002323 -0.000334 106.381714 71.020905
68 71.020905 0.000000 0.000030 0.002323 -0.000334 106.381714 71.020905
[null_rope01_connect]
67 328.732483 0.000000 -0.000238 -120.499985 -34.041027 -168.444870 328.732483
68 328.732483 0.000000 -0.000238 -120.554558 -32.547878 -169.187866 328.732483
[Rope1_Seg01]
67 4.745028 -6.256711 -1.534270 22.155519 -1.677326 -106.379997 8.000982
68 4.499443 -6.380052 -1.626190 18.724554 -1.302514 -104.401169 7.974618
[Rope1_Seg02]
67 139.999863 -0.000179 0.000000 10.034185 -3.610464 -4.190524 139.999863
68 139.999863 -0.000179 0.000000 9.049985 -3.361848 -3.858477 139.999863
[Rope1_Seg03]
67 139.999924 0.000060 -0.000060 26.354546 -12.044069 -10.047660 139.999924
68 139.999924 0.000060 -0.000060 22.700140 -10.282619 -8.735499 139.999924
[Rope1_Seg04]
67 139.999924 -0.000060 -0.000119 47.871975 -64.679276 -25.687977 139.999924
68 139.999924 -0.000060 -0.000119 51.438225 -59.358715 -28.974237 139.999924
[Rope1_Seg05]
67 139.999832 0.000119 -0.000060 -7.258630 -32.045410 13.096276 139.999832
68 139.999832 0.000119 -0.000060 -8.149202 -37.335930 15.351815 139.999832
[Rope1_Seg06]
67 139.999954 0.000119 -0.000060 -7.665896 -16.224804 1.005859 139.999954
68 139.999954 0.000119 -0.000060 -7.095995 -15.775844 1.391211 139.999954
[Rope1_Seg07]
67 139.999985 0.000060 0.000000 -27.260654 -31.866039 -5.843849 139.999985
68 139.999985 0.000060 0.000000 -25.416969 -30.419880 -4.400631 139.999985
[Rope1_Seg09]
67 121.602913 0.000119 -0.000089 -89.793175 -1.359789 0.847147 121.602913
68 121.602913 0.000119 -0.000089 -89.793175 -1.359789 0.847147 121.602913
[L_mid_hand01]
67 103.859421 1.038730 8.195221 116.294914 -23.111713 -31.758034 104.187431
68 103.859421 1.038730 8.195221 116.294914 -23.111713 -31.758034 104.187431
[L_mid_hand02]
67 105.572853 -4.139662 -10.864139 -144.219833 17.447470 -35.360519 106.211075
68 105.572853 -4.139662 -10.864139 -144.219833 17.447468 -35.360519 106.211075
[L_mid_hand03]
67 104.641464 17.579376 -3.913581 -17.830780 17.153103 31.982925 106.179977
68 104.641464 17.579376 -3.913581 -17.830780 17.153103 31.982925 106.179977
[null_rope02_connect]
67 328.732849 0.000179 -0.000119 -149.545792 43.901257 11.357743 328.732849
68 328.732849 0.000179 -0.000119 -135.574905 53.996540 40.337273 328.732849
[Rope2_Seg01]
67 0.000043 0.000354 0.000067 44.532150 55.442585 158.297729 0.000363
68 0.000042 0.000357 0.000068 -95.737953 72.113831 10.814406 0.000366
[Rope2_Seg02]
67 139.999741 -0.000060 -0.000119 -1.502384 2.159077 -8.721725 139.999756
68 139.999741 -0.000060 -0.000119 4.754249 1.020571 -9.093696 139.999756
[Rope2_Seg03]
67 140.000107 0.000030 0.000000 -1.314274 5.296850 -19.883381 140.000107
68 140.000107 0.000030 0.000000 10.862732 0.663071 -16.030167 140.000107
[Rope2_Seg04]
67 139.999802 0.000000 -0.000060 9.133078 9.280463 -44.729706 139.999802
68 139.999802 0.000000 -0.000060 17.083740 -2.897083 -19.330099 139.999802
[Rope2_Seg05]
67 139.999985 -0.000060 0.000119 15.524735 3.475469 -24.946190 139.999985
68 139.999985 -0.000060 0.000119 -14.314073 6.188564 17.752504 139.999985
[Rope2_Seg06]
67 139.999893 -0.000030 -0.000119 10.907451 3.025729 -13.394284 139.999893
68 139.999893 -0.000030 -0.000119 -8.377876 1.050958 13.244366 139.999893
[Rope2_Seg07]
67 139.999893 0.000060 -0.000060 11.879803 -1.591734 -10.481385 139.999893
68 139.999893 0.000060 -0.000060 -3.211294 -0.523669 6.178678 139.999893
[Rope2_Seg09]
67 121.338966 0.000089 -0.000060 33.793236 -1.359788 -0.847141 121.338966
68 121.338966 0.000089 -0.000060 33.793236 -1.359788 -0.847141 121.338966
[R_mid_hand01]
67 104.680779 11.144459 -10.335981 -41.523792 25.424656 28.595957 105.778534
68 104.680779 11.144459 -10.335981 -41.523792 25.424656 28.595957 105.778534
[R_mid_hand02]
67 104.070427 2.443552 8.231699 72.847389 -32.746803 10.013901 104.424065
68 104.070427 2.443552 8.231699 72.847389 -32.746803 10.013901 104.424065
[R_mid_hand03]
67 106.028137 -11.221827 -5.996406 -167.901306 10.259192 -37.009720 106.788818
68 106.028137 -11.221827 -5.996406 -167.901306 10.259192 -37.009720 106.788818
[spine02]
67 129.756927 0.001550 0.000119 -0.245322 -4.052060 -4.355547 129.756927
68 129.756927 0.001550 0.000119 -0.245322 -4.052060 -4.355547 129.756927
[spine03]
67 78.614090 0.087280 -4.898818 0.369659 4.260735 -4.885721 78.766624
68 78.614098 0.087280 -4.898818 0.369659 4.260735 -4.885721 78.766632
[pelvis]
67 169.435242 0.051022 0.000000 -0.010007 -0.191417 -1.897554 169.435257
68 169.435242 0.051022 0.000000 -0.010007 -0.191417 -1.897554 169.435257
[null_rope03_connect]
67 -1.257226 -2.466202 137.391083 -0.417941 -84.133659 120.422699 137.418976
68 -1.257226 -2.466202 137.391083 -14.855938 -84.927460 134.947250 137.418976
[null_rope04_connect]
67 -1.259640 -2.480268 -137.844437 -0.417941 -84.133659 120.422699 137.872513
68 -1.259640 -2.480268 -137.844437 -14.855938 -84.927460 134.947250 137.872513
[Rope3_Seg01]
67 -0.000005 0.000269 -0.000134 -133.109619 -38.174732 -79.158157 0.000300
68 -0.000005 0.000273 -0.000136 -143.704132 -39.478683 -62.045338 0.000305
[Rope3_Seg02]
67 139.999924 -0.000119 0.000060 -0.530005 0.842886 -4.320986 139.999924
68 139.999924 -0.000119 0.000060 -0.798225 -0.668699 -4.574784 139.999924
[Rope3_Seg03]
67 139.999924 -0.000119 0.000119 -1.444133 1.509282 -7.402635 139.999924
68 139.999924 -0.000119 0.000119 -1.831483 -0.991340 -7.536320 139.999924
[Rope3_Seg04]
67 139.999924 0.000119 0.000000 -5.569544 3.547002 -15.719275 139.999924
68 139.999924 0.000119 0.000000 -6.047912 -1.417434 -14.594561 139.999924
[Rope3_Seg05]
67 139.999924 -0.000238 0.000060 -37.833580 12.903455 -42.758663 139.999924
68 139.999924 -0.000238 0.000060 -51.453560 0.758481 -36.940899 139.999924
[Rope3_Seg06]
67 139.999893 -0.000119 -0.000060 -31.613976 21.928322 -19.480137 139.999893
68 139.999893 -0.000119 -0.000060 -52.861084 21.172640 -17.958578 139.999893
[Rope3_Seg07]
67 139.999771 0.000060 -0.000119 -8.457035 10.234704 -3.729902 139.999771
68 139.999771 0.000060 -0.000119 -8.004163 8.197104 0.257146 139.999771
[Rope3_Seg08]
67 139.999985 -0.000060 0.000000 -7.106177 11.650925 -2.129023 139.999985
68 139.999985 -0.000060 0.000000 -5.642427 8.714216 1.870713 139.999985
[Rope3_Seg09]
67 90.185997 -0.000179 -0.000060 89.793228 -1.359877 -0.847183 90.185997
68 90.185997 -0.000179 -0.000060 89.793228 -1.359877 -0.847183 90.185997
[R_rear_hand01]
67 103.366196 -6.073594 -10.757982 -158.627975 33.644131 -23.327255 104.101845
68 103.366196 -6.073594 -10.757982 -158.627975 33.644119 -23.327248 104.101845
[R_rear_hand02]
67 100.509819 12.039542 -7.992327 -36.327797 26.496246 23.332455 101.543350
68 100.509819 12.039542 -7.992327 -36.327797 26.496241 23.332451 101.543350
[R_rear_hand03]
67 101.539970 5.215704 5.435467 73.054993 -27.152544 27.950710 101.819031
68 101.539970 5.215704 5.435467 73.054977 -27.152536 27.950705 101.819031
[Rope4_Seg01]
67 -0.000030 0.000021 0.000085 49.282001 -28.391180 -104.047943 0.000093
68 -0.000030 0.000021 0.000084 48.610485 -29.664944 -102.166458 0.000092
[Rope4_Seg02]
67 139.999985 0.000060 0.000119 0.073614 -10.275348 -8.150499 139.999985
68 139.999985 0.000060 0.000119 0.298486 -10.730263 -7.602310 139.999985
[Rope4_Seg03]
67 139.999924 0.000000 -0.000238 -1.279973 -20.898720 -17.720198 139.999924
68 139.999924 0.000000 -0.000238 0.100822 -21.775352 -16.380970 139.999924
[Rope4_Seg04]
67 139.999985 0.000000 0.000119 -32.620991 -24.707514 -23.418335 139.999985
68 139.999985 0.000000 0.000119 -19.935444 -26.319450 -21.002407 139.999985
[Rope4_Seg05]
67 139.999802 -0.000060 -0.000119 -81.794968 -2.221900 -17.162924 139.999802
68 139.999802 -0.000060 -0.000119 -103.986229 -7.276959 -15.732426 139.999802
[Rope4_Seg06]
67 139.999924 0.000000 0.000060 -24.121521 28.567808 -4.756250 139.999924
68 139.999924 0.000000 0.000060 -21.864340 28.769508 -1.867830 139.999924
[Rope4_Seg07]
67 139.999802 0.000000 0.000000 -0.303361 36.390995 10.971585 139.999802
68 139.999802 0.000000 0.000000 1.357015 35.244404 13.450121 139.999802
[Rope4_Seg08]
67 139.999924 0.000000 0.000119 -1.094531 13.856642 4.393748 139.999924
68 139.999924 0.000000 0.000119 -1.052250 13.589951 5.043194 139.999924
[Rope4_Seg09]
67 90.185791 0.000060 0.000060 -135.617828 2.228885 0.850567 90.185791
68 90.185791 0.000060 0.000060 -135.617828 2.228885 0.850567 90.185791
[L_rear_hand01]
67 101.696655 -8.392275 -7.654577 -33.685814 -15.212529 149.017090 102.329041
68 101.696655 -8.392275 -7.654577 -33.685818 -15.212530 149.017090 102.329041
[L_rear_hand02]
67 102.726799 -1.568258 5.773216 83.407906 30.330435 172.796509 102.900848
68 102.726799 -1.568258 5.773216 83.407906 30.330435 172.796509 102.900848
[L_rear_hand03]
67 104.552910 9.721220 -10.420293 -160.801224 -15.606595 -150.211823 105.519653
68 104.552910 9.721220 -10.420293 -160.801239 -15.606593 -150.211823 105.519653
